<svg width="869" height="869" xmlns="http://www.w3.org/2000/svg" xmlns:xlink="http://www.w3.org/1999/xlink" overflow="hidden"><defs><clipPath id="clip0"><rect x="0" y="0" width="869" height="869"/></clipPath></defs><g clip-path="url(#clip0)"><rect x="0" y="0" width="869" height="869" fill="#FFFFFF"/><path d="M28 419 377.505 419" stroke="#4472C4" stroke-width="3.99847" stroke-miterlimit="8" fill="none" fill-rule="evenodd"/><path d="M162 142 618.716 142" stroke="#4472C4" stroke-width="3.99847" stroke-miterlimit="8" fill="none" fill-rule="evenodd"/><path d="M28 819 377.505 819" stroke="#4472C4" stroke-width="3.99847" stroke-miterlimit="8" fill="none" fill-rule="evenodd"/><path d="M151 542 604.618 542" stroke="#4472C4" stroke-width="3.99847" stroke-miterlimit="8" stroke-dasharray="31.9877 11.9954" fill="none" fill-rule="evenodd"/><path d="M377 419 377 818.463" stroke="#4472C4" stroke-width="3.99847" stroke-miterlimit="8" fill="none" fill-rule="evenodd"/><path d="M618 142 618 541.463" stroke="#4472C4" stroke-width="3.99847" stroke-miterlimit="8" fill="none" fill-rule="evenodd"/><path d="M0 0 241.163 277.129" stroke="#4472C4" stroke-width="3.99847" stroke-miterlimit="8" fill="none" fill-rule="evenodd" transform="matrix(1 0 0 -1 377 419.129)"/><path d="M0 0 239.835 277.129" stroke="#4472C4" stroke-width="3.99847" stroke-miterlimit="8" fill="none" fill-rule="evenodd" transform="matrix(1 0 0 -1 379 819.129)"/><path d="M655.839 34.8571 656.682 37.2633C651.807 38.8675 648.198 41.9977 645.854 46.6539 643.511 51.3102 642.339 57.1591 642.339 64.2008 642.339 71.4925 643.511 77.5029 645.854 82.232 648.198 86.9612 651.776 90.1279 656.589 91.732L655.839 94.1383C649.734 92.5341 645.057 89.081 641.807 83.7789 638.557 78.4768 636.932 72.055 636.932 64.5133 636.932 56.9925 638.563 50.5706 641.823 45.2477 645.083 39.9248 649.755 36.4612 655.839 34.8571Z" fill="#C55A11" fill-rule="evenodd"/><text fill="#000000" fill-opacity="0" font-family="Arial,Arial_MSFontService,sans-serif" font-size="59.2812" x="636.932" y="86.7281">(</text><path d="M667.766 37.3571 680.266 37.3571 679.922 38.8883C679.131 39.055 678.563 39.2425 678.219 39.4508 677.875 39.6591 677.568 39.9716 677.297 40.3883 677.026 40.805 676.745 41.456 676.453 42.3414 676.162 43.2268 675.797 44.6696 675.36 46.6696L670.016 70.9195C669.745 72.1487 669.568 73.1227 669.485 73.8414 669.401 74.5602 669.36 75.2112 669.36 75.7945 669.36 76.732 669.594 77.3935 670.063 77.7789 670.532 78.1643 671.318 78.3987 672.422 78.482L672.078 80.0133 659.578 80.0133 659.922 78.482C660.714 78.357 661.308 78.1539 661.703 77.8727 662.099 77.5914 662.433 77.2008 662.703 76.7008 662.974 76.2008 663.224 75.5914 663.453 74.8727 663.683 74.1539 664.026 72.7633 664.485 70.7008L669.797 46.6383C670.256 44.555 670.485 42.8779 670.485 41.6071 670.485 40.6279 670.24 39.9456 669.75 39.5602 669.261 39.1748 668.485 38.9508 667.422 38.8883Z" fill="#C55A11" fill-rule="evenodd"/><text fill="#000000" fill-opacity="0" font-family="Arial,Arial_MSFontService,sans-serif" font-size="42.6562" x="659.578" y="74.6813">𝐼</text><path d="M686.185 34.8571C692.268 36.4612 696.94 39.9248 700.201 45.2477 703.461 50.5706 705.091 56.9925 705.091 64.5133 705.091 72.055 703.466 78.4768 700.216 83.7789 696.966 89.081 692.289 92.5341 686.185 94.1383L685.435 91.732C690.248 90.1279 693.826 86.9612 696.169 82.232 698.513 77.5029 699.685 71.4925 699.685 64.2008 699.685 57.1591 698.518 51.3102 696.185 46.6539 693.852 41.9977 690.237 38.8675 685.341 37.2633Z" fill="#C55A11" fill-rule="evenodd"/><text fill="#000000" fill-opacity="0" font-family="Arial,Arial_MSFontService,sans-serif" font-size="59.2812" x="685.341" y="86.7281">)</text><path d="M0 0 459.873 536.441" stroke="#70AD47" stroke-width="5.9977" stroke-miterlimit="8" stroke-dasharray="23.9908 17.9931 5.9977 17.9931" fill="none" fill-rule="evenodd" transform="matrix(-1 0 0 1 718.873 212)"/><text font-family="Cambria Math,Cambria Math_MSFontService,sans-serif" font-weight="400" font-size="37" transform="matrix(0.583038 -0.812445 0.812445 0.583038 239.164 744)">𝐿𝑁<tspan font-size="37" x="48.0231" y="0.0276203">~</tspan><tspan font-size="37" x="74.1458" y="0.410614">𝑧</tspan></text><path d="M621.959 140.001 748.188 140.001 748.188 143.999 621.959 143.999ZM632.947 150.724 617.991 142 632.947 133.276C633.9 132.719 635.124 133.042 635.681 133.995 636.237 134.949 635.915 136.173 634.961 136.73L622.966 143.727 622.966 140.273 634.961 147.27C635.915 147.827 636.237 149.051 635.681 150.005 635.124 150.958 633.9 151.281 632.947 150.724Z" fill="#FF0000"/><path d="M380.959 418.001 507.188 418.001 507.188 421.999 380.959 421.999ZM391.947 428.724 376.991 420 391.947 411.276C392.9 410.72 394.124 411.042 394.681 411.995 395.237 412.949 394.915 414.173 393.961 414.73L381.966 421.727 381.966 418.273 393.961 425.271C394.915 425.827 395.237 427.051 394.681 428.005 394.124 428.958 392.9 429.281 391.947 428.724Z" fill="#FF0000"/><path d="M501.959 279.001 628.188 279.001 628.188 282.999 501.959 282.999ZM512.947 289.724 497.991 281 512.947 272.276C513.9 271.719 515.125 272.042 515.681 272.995 516.237 273.949 515.915 275.173 514.961 275.73L502.966 282.727 502.966 279.273 514.961 286.27C515.915 286.827 516.237 288.051 515.681 289.005 515.125 289.958 513.9 290.281 512.947 289.724Z" fill="#FF0000"/><path d="M556.958 210.001 683.188 210.001 683.188 213.999 556.958 213.999ZM567.946 220.724 552.991 212 567.946 203.276C568.9 202.719 570.124 203.042 570.681 203.995 571.237 204.949 570.915 206.173 569.961 206.73L557.966 213.727 557.966 210.273 569.961 217.27C570.915 217.827 571.237 219.051 570.681 220.005 570.124 220.958 568.9 221.281 567.946 220.724Z" fill="#FF0000"/><path d="M445.959 340.001 572.188 340.001 572.188 343.999 445.959 343.999ZM456.947 350.724 441.991 342 456.947 333.276C457.9 332.72 459.124 333.042 459.681 333.995 460.237 334.949 459.915 336.173 458.961 336.73L446.966 343.727 446.966 340.273 458.961 347.271C459.915 347.827 460.237 349.051 459.681 350.005 459.124 350.958 457.9 351.281 456.947 350.724Z" fill="#FF0000"/><path d="M0 0 241.163 277.129" stroke="#FF0000" stroke-width="3.99847" stroke-miterlimit="8" fill="none" fill-rule="evenodd" transform="matrix(1 0 0 -1 507 419.129)"/><path d="M0 0 128.541 188.58" stroke="#FF0000" stroke-width="3.99847" stroke-miterlimit="8" fill="none" fill-rule="evenodd" transform="matrix(1 0 0 -1 379 608.58)"/><path d="M0 0 128.541 188.58" stroke="#FF0000" stroke-width="3.99847" stroke-miterlimit="8" fill="none" fill-rule="evenodd" transform="matrix(1 0 0 -1 620 331.58)"/><path d="M787.387 158.447C783.897 158.551 780.772 159.56 778.012 161.474 775.251 163.388 773.109 165.96 771.586 169.189 770.063 172.418 769.301 175.999 769.301 179.931 769.301 181.963 769.633 183.597 770.297 184.834 770.961 186.071 771.788 186.924 772.777 187.392 773.767 187.861 774.835 188.095 775.981 188.095 778.611 188.095 780.889 187.236 782.816 185.517 784.744 183.799 786.3 181.181 787.484 177.666 788.669 174.15 789.262 170.739 789.262 167.431 789.262 163.864 788.637 160.869 787.387 158.447ZM793.402 153.174 805.824 153.174 804.652 158.33 791.879 158.33 791.801 158.642C793.285 160.413 794.353 162.197 795.004 163.994 795.655 165.791 795.981 167.757 795.981 169.892 795.981 173.772 795.147 177.373 793.481 180.693 791.814 184.013 789.483 186.585 786.488 188.408 783.494 190.231 780.108 191.142 776.332 191.142 772.035 191.142 768.76 189.99 766.508 187.685 764.255 185.381 763.129 182.119 763.129 177.9 763.129 175.009 763.565 172.269 764.438 169.677 765.31 167.086 766.599 164.703 768.305 162.529 770.01 160.354 771.944 158.59 774.106 157.236 776.267 155.882 778.845 154.866 781.84 154.189 784.835 153.512 788.689 153.174 793.402 153.174Z" fill="#FF0000" fill-rule="evenodd"/><text fill="#000000" fill-opacity="0" font-family="Arial,Arial_MSFontService,sans-serif" font-size="37.9688" x="763.129" y="186.396">𝜎</text><path d="M813.538 177.923C814.577 177.923 815.426 178.149 816.087 178.602 816.748 179.055 817.295 179.716 817.73 180.585 818.164 181.453 818.523 182.525 818.806 183.799 819.089 185.074 819.391 186.532 819.712 188.175L820.08 188.175C821.213 186.683 822.195 185.39 823.026 184.295 823.856 183.2 824.597 182.275 825.249 181.519 825.9 180.764 826.485 180.15 827.005 179.678 827.524 179.206 828.029 178.843 828.52 178.588 829.011 178.333 829.516 178.159 830.035 178.064 830.554 177.97 831.135 177.923 831.777 177.923 832.721 177.923 833.58 178.093 834.354 178.432L832.938 184.011 830.587 184.011C830.531 183.2 830.228 182.794 829.681 182.794 829.473 182.794 829.247 182.831 829.001 182.907 828.756 182.983 828.463 183.134 828.123 183.36 827.783 183.587 827.392 183.903 826.948 184.309 826.504 184.715 825.98 185.243 825.376 185.895 824.772 186.546 824.083 187.344 823.309 188.288 822.535 189.232 821.647 190.346 820.647 191.63 821.156 194.235 821.595 196.321 821.964 197.888 822.332 199.456 822.686 200.654 823.026 201.485 823.365 202.316 823.705 202.859 824.045 203.114 824.385 203.368 824.772 203.496 825.206 203.496 825.527 203.496 825.825 203.458 826.098 203.383 826.372 203.307 826.655 203.142 826.948 202.887 827.241 202.632 827.566 202.264 827.925 201.782 828.284 201.301 828.709 200.664 829.199 199.871L831.323 201.259C830.493 202.505 829.756 203.524 829.115 204.317 828.473 205.11 827.85 205.733 827.245 206.186 826.641 206.639 826.018 206.946 825.376 207.107 824.734 207.267 823.998 207.347 823.167 207.347 822.45 207.347 821.808 207.248 821.241 207.05 820.675 206.852 820.184 206.488 819.769 205.96 819.486 205.639 819.221 205.209 818.976 204.671 818.73 204.133 818.504 203.553 818.296 202.929 818.088 202.306 817.9 201.66 817.73 200.99 817.56 200.319 817.418 199.691 817.305 199.106 817.192 198.521 817.102 197.997 817.036 197.534 816.97 197.072 816.927 196.727 816.908 196.501L816.597 196.501C815.464 198.011 814.478 199.328 813.637 200.451 812.797 201.575 812.037 202.538 811.358 203.34 810.678 204.143 810.064 204.803 809.517 205.323 808.969 205.842 808.431 206.252 807.903 206.554 807.374 206.857 806.831 207.064 806.274 207.178 805.717 207.291 805.099 207.347 804.419 207.347 803.437 207.347 802.597 207.178 801.899 206.838L803.201 201.315 805.609 201.315C805.665 202.146 805.977 202.561 806.543 202.561 806.751 202.542 806.954 202.505 807.152 202.448 807.35 202.391 807.582 202.273 807.846 202.094 808.11 201.915 808.445 201.631 808.851 201.244 809.257 200.857 809.772 200.319 810.395 199.63 811.018 198.941 811.782 198.077 812.689 197.039 813.595 196 814.681 194.717 815.946 193.187 815.606 191.601 815.308 190.223 815.053 189.053 814.799 187.882 814.563 186.877 814.345 186.036 814.128 185.196 813.916 184.512 813.708 183.983 813.501 183.455 813.288 183.034 813.071 182.723 812.854 182.411 812.618 182.19 812.363 182.057 812.108 181.925 811.811 181.85 811.471 181.831 811.15 181.831 810.853 181.883 810.579 181.987 810.305 182.09 810.022 182.275 809.729 182.539 809.437 182.803 809.116 183.171 808.766 183.643 808.417 184.115 808.016 184.729 807.563 185.484L805.382 184.068C806.156 182.916 806.855 181.944 807.478 181.151 808.101 180.358 808.714 179.726 809.319 179.254 809.923 178.782 810.56 178.442 811.23 178.234 811.9 178.026 812.67 177.923 813.538 177.923Z" fill="#FF0000" fill-rule="evenodd"/><text fill="#000000" fill-opacity="0" font-family="Arial,Arial_MSFontService,sans-serif" font-size="29.4248" x="801.899" y="203.669">𝑥</text><path d="M377 817.001 503.23 817.001 503.23 820.999 377 820.999ZM492.242 810.276 507.197 819 492.242 827.724C491.288 828.281 490.064 827.958 489.507 827.005 488.951 826.051 489.273 824.827 490.227 824.27L502.222 817.273 502.222 820.727 490.227 813.73C489.273 813.173 488.951 811.949 489.507 810.995 490.064 810.042 491.288 809.719 492.242 810.276Z" fill="#FF0000"/><path d="M618 540.001 744.23 540.001 744.23 543.999 618 543.999ZM733.242 533.276 748.197 542 733.242 550.724C732.288 551.281 731.064 550.958 730.507 550.005 729.951 549.051 730.273 547.827 731.227 547.271L743.222 540.273 743.222 543.727 731.227 536.73C730.273 536.173 729.951 534.949 730.507 533.995 731.064 533.042 732.288 532.72 733.242 533.276Z" fill="#FF0000"/><path d="M513 663.001 639.23 663.001 639.23 666.999 513 666.999ZM628.242 656.276 643.197 665 628.242 673.724C627.288 674.281 626.064 673.959 625.507 673.005 624.951 672.051 625.273 670.827 626.227 670.271L638.222 663.273 638.222 666.727 626.227 659.73C625.273 659.173 624.951 657.949 625.507 656.995 626.064 656.042 627.288 655.72 628.242 656.276Z" fill="#FF0000"/><path d="M572 592.001 698.23 592.001 698.23 595.999 572 595.999ZM687.242 585.276 702.197 594 687.242 602.724C686.288 603.281 685.064 602.958 684.507 602.005 683.951 601.051 684.273 599.827 685.227 599.271L697.222 592.273 697.222 595.727 685.227 588.73C684.273 588.173 683.951 586.949 684.507 585.995 685.064 585.042 686.288 584.72 687.242 585.276Z" fill="#FF0000"/><path d="M452 736.001 578.23 736.001 578.23 739.999 452 739.999ZM567.242 729.276 582.197 738 567.242 746.724C566.288 747.281 565.064 746.958 564.507 746.005 563.951 745.051 564.273 743.827 565.227 743.27L577.222 736.273 577.222 739.727 565.227 732.73C564.273 732.173 563.951 730.949 564.507 729.995 565.064 729.042 566.288 728.719 567.242 729.276Z" fill="#FF0000"/><path d="M0 0 241.163 277.129" stroke="#FF0000" stroke-width="3.99847" stroke-miterlimit="8" fill="none" fill-rule="evenodd" transform="matrix(1 0 0 -1 506 817.129)"/><path d="M377 609 500.835 820.47" stroke="#FF0000" stroke-width="3.99847" stroke-miterlimit="8" fill="none" fill-rule="evenodd"/><path d="M618 330 741.835 541.47" stroke="#FF0000" stroke-width="3.99847" stroke-miterlimit="8" fill="none" fill-rule="evenodd"/><path d="M525.208 411.097 536.431 399.124 536.911 405.569C564.379 406.858 582.519 419.307 577.869 433.677 573.047 423.982 557.399 417.204 537.707 416.28L538.187 422.724Z" fill="#C55A11" fill-rule="evenodd"/><path d="M579.348 438.952C580.43 453.505 558.125 467.028 529.527 469.155L528.73 458.445C557.328 456.318 579.634 442.795 578.551 428.242Z" fill="#9E480E" fill-rule="evenodd"/><path d="M577.869 433.677C573.047 423.982 557.399 417.204 537.707 416.28L538.187 422.724 525.208 411.097 536.431 399.124 536.911 405.569C560.421 406.672 577.644 416.05 578.551 428.242L579.348 438.952C580.43 453.505 558.125 467.028 529.527 469.155L528.73 458.445C557.328 456.318 579.634 442.795 578.551 428.242" stroke="#C55A11" stroke-width="1.33282" stroke-miterlimit="8" fill="none" fill-rule="evenodd"/><path d="M540.957 479.208 551.242 479.208 554.526 507.153 571.321 479.208 580.396 479.208 580.079 480.62C579.349 480.774 578.826 480.947 578.509 481.139 578.192 481.331 577.904 481.619 577.645 482.003 577.385 482.387 577.126 482.987 576.867 483.803 576.608 484.62 576.276 485.95 575.873 487.793L570.947 510.149C570.697 511.282 570.534 512.18 570.457 512.842 570.38 513.505 570.342 514.105 570.342 514.643 570.342 515.507 570.558 516.117 570.99 516.472 571.422 516.828 572.147 517.044 573.165 517.12L572.848 518.532 561.325 518.532 561.641 517.12C562.371 517.005 562.919 516.818 563.284 516.559 563.648 516.299 563.956 515.939 564.205 515.478 564.455 515.017 564.686 514.456 564.897 513.793 565.108 513.13 565.425 511.849 565.848 509.947L569.679 492.576C570.217 490.175 570.831 487.784 571.523 485.402L571.12 485.402C570.524 486.535 569.18 488.84 567.086 492.316L553.978 513.952 550.838 513.952 548.447 495.428C548.101 492.816 547.717 489.301 547.295 484.884L546.719 484.884C546.066 489.186 545.336 493.171 544.529 496.839L541.591 510.149C541.187 511.973 540.986 513.471 540.986 514.643 540.986 515.507 541.202 516.117 541.634 516.472 542.066 516.828 542.791 517.044 543.809 517.12L543.492 518.532 533.409 518.532 533.726 517.12C534.456 517.005 535.003 516.818 535.368 516.559 535.733 516.299 536.04 515.939 536.29 515.478 536.54 515.017 536.77 514.456 536.981 513.793 537.193 513.13 537.509 511.849 537.932 509.947L542.829 487.765C543.022 486.939 543.175 486.151 543.29 485.402 543.406 484.653 543.463 483.895 543.463 483.126 543.463 482.224 543.238 481.595 542.786 481.239 542.335 480.884 541.62 480.678 540.64 480.62Z" fill="#C55A11" fill-rule="evenodd"/><text fill="#000000" fill-opacity="0" font-family="Arial,Arial_MSFontService,sans-serif" font-size="39.3237" x="533.409" y="513.617">𝑀</text><path d="M583.616 509.505 599.951 509.505 600.455 510.765C599.531 511.786 598.652 512.759 597.82 513.683 596.987 514.607 596.161 515.517 595.342 516.412 594.523 517.308 593.704 518.201 592.886 519.089 592.067 519.978 591.216 520.902 590.335 521.861 589.453 522.82 588.529 523.828 587.563 524.884 586.597 525.941 585.561 527.078 584.456 528.296 584.512 528.352 584.554 528.387 584.582 528.401L589.747 528.401C590.279 528.401 590.74 528.398 591.132 528.391 591.524 528.384 591.867 528.345 592.161 528.275 592.455 528.205 592.725 528.09 592.97 527.929 593.214 527.768 593.456 527.53 593.694 527.215 593.932 526.9 594.184 526.498 594.45 526.008 594.716 525.518 595.031 524.909 595.395 524.181L597.557 524.181 596.213 530.501 579.543 530.501 578.976 529.241C580.319 527.757 581.716 526.218 583.164 524.622 584.613 523.026 586.041 521.459 587.448 519.919 588.854 518.379 590.209 516.906 591.51 515.499 592.812 514.092 593.988 512.829 595.038 511.709 594.982 511.653 594.94 511.618 594.912 511.604L589.516 511.604C588.9 511.604 588.375 511.653 587.941 511.751 587.507 511.849 587.108 512.038 586.744 512.318 586.38 512.598 586.023 512.99 585.673 513.494 585.323 513.998 584.918 514.663 584.456 515.489L582.314 515.489Z" fill="#C55A11" fill-rule="evenodd"/><text fill="#000000" fill-opacity="0" font-family="Arial,Arial_MSFontService,sans-serif" font-size="20.9961" x="578.976" y="527.876">𝑧</text><path d="M2.65963 0.805489 226.097 262.452 223.816 264.399 0.379155 2.75294ZM0.160866 13.5069-0.00199624-0.00233773 13.3151 2.27356C14.1314 2.41306 14.68 3.18787 14.5405 4.00414 14.401 4.82042 13.6262 5.36905 12.8099 5.22955L1.26642 3.25676 3.01833 1.76069 3.1595 13.4707C3.16948 14.2988 2.50631 14.9781 1.67826 14.9881 0.850208 14.9981 0.170848 14.3349 0.160866 13.5069ZM226.315 251.698 226.478 265.207 213.161 262.931C212.345 262.792 211.796 262.017 211.936 261.201 212.075 260.385 212.85 259.836 213.666 259.975L225.21 261.948 223.458 263.444 223.317 251.734C223.307 250.906 223.97 250.227 224.798 250.217 225.626 250.207 226.305 250.87 226.315 251.698Z" transform="matrix(1 0 0 -1 84.5 413.705)"/><path d="M1.52068 2.32349 5.07585 392.124 2.07712 392.151-1.47805 2.35084ZM-8.55403 10.4542-2.80206e-05-0.00307358 8.74328 10.2964C9.27921 10.9277 9.20188 11.874 8.57057 12.4099 7.93926 12.9458 6.99303 12.8685 6.45711 12.2372L-1.12175 3.30938 1.18193 3.28837-6.23283 12.3529C-6.75715 12.9939-7.70181 13.0885-8.34279 12.5642-8.98377 12.0398-9.07835 11.0952-8.55403 10.4542ZM12.1518 384.018 3.59781 394.475-5.1455 384.176C-5.68143 383.545-5.6041 382.598-4.97279 382.062-4.34148 381.526-3.39525 381.604-2.85933 382.235L4.71954 391.163 2.41585 391.184 9.83061 382.119C10.3549 381.478 11.2996 381.384 11.9406 381.908 12.5816 382.432 12.6761 383.377 12.1518 384.018Z" transform="matrix(1 0 0 -1 84.5 820.972)"/><text font-family="Cambria Math,Cambria Math_MSFontService,sans-serif" font-weight="400" font-size="53" transform="matrix(1 0 0 1 30.1887 646)">𝑏<tspan font-size="53" x="112.919" y="-383">𝑎</tspan></text><path d="M374 766.001 465.936 766.001 465.936 769.999 374 769.999ZM454.948 759.276 469.904 768 454.948 776.724C453.994 777.281 452.77 776.958 452.214 776.005 451.657 775.051 451.98 773.827 452.933 773.271L464.929 766.273 464.929 769.727 452.933 762.73C451.98 762.173 451.657 760.949 452.214 759.995 452.77 759.042 453.994 758.72 454.948 759.276Z" fill="#FF0000"/><path d="M374 698.001 417.989 698.001 417.989 701.999 374 701.999ZM407.001 691.276 421.956 700 407.001 708.724C406.047 709.281 404.823 708.959 404.266 708.005 403.71 707.051 404.032 705.827 404.986 705.271L416.981 698.273 416.981 701.727 404.986 694.73C404.032 694.173 403.71 692.949 404.266 691.995 404.823 691.042 406.047 690.72 407.001 691.276Z" fill="#FF0000"/><path d="M623 497.001 714.936 497.001 714.936 500.999 623 500.999ZM703.948 490.276 718.904 499 703.948 507.724C702.994 508.281 701.77 507.958 701.214 507.005 700.657 506.051 700.98 504.827 701.933 504.27L713.929 497.273 713.929 500.727 701.933 493.73C700.98 493.173 700.657 491.949 701.214 490.995 701.77 490.042 702.994 489.72 703.948 490.276Z" fill="#FF0000"/><path d="M623 429.001 666.989 429.001 666.989 432.999 623 432.999ZM656.001 422.276 670.957 431 656.001 439.724C655.047 440.281 653.823 439.958 653.266 439.005 652.71 438.051 653.032 436.827 653.986 436.271L665.981 429.273 665.981 432.727 653.986 425.73C653.032 425.173 652.71 423.949 653.267 422.995 653.823 422.042 655.047 421.72 656.001 422.276Z" fill="#FF0000"/><path d="M380.958 479.001 469.718 479.001 469.718 482.999 380.958 482.999ZM391.946 489.724 376.991 481 391.947 472.276C392.9 471.719 394.124 472.042 394.681 472.995 395.237 473.949 394.915 475.173 393.961 475.73L381.966 482.727 381.966 479.273 393.961 486.27C394.915 486.827 395.237 488.051 394.681 489.005 394.124 489.958 392.9 490.281 391.946 489.724Z" fill="#FF0000"/><path d="M377.958 536.001 423.536 536.001 423.536 539.999 377.958 539.999ZM388.946 546.724 373.991 538 388.946 529.276C389.9 528.72 391.124 529.042 391.681 529.995 392.237 530.949 391.915 532.173 390.961 532.73L378.966 539.727 378.966 536.273 390.961 543.271C391.915 543.827 392.237 545.051 391.681 546.005 391.124 546.958 389.9 547.281 388.946 546.724Z" fill="#FF0000"/></g></svg>