<svg width="983" height="378" xmlns="http://www.w3.org/2000/svg" xmlns:xlink="http://www.w3.org/1999/xlink" overflow="hidden"><defs><clipPath id="clip0"><rect x="0" y="0" width="983" height="378"/></clipPath></defs><g clip-path="url(#clip0)"><rect x="0" y="0" width="983" height="377.872" fill="#FFFFFF"/><rect x="64.5" y="187.436" width="709" height="30.9895" stroke="#8FAADC" stroke-width="1.33379" stroke-miterlimit="8" fill="#4472C4"/><path d="M3-4.27296e-06 3.00008 58.7101-2.99992 58.7101-3 4.27296e-06ZM9.00008 55.7101 0.000104987 73.7101-8.99992 55.7101Z" fill="#70AD47" transform="matrix(1.00034 0 0 -1 65 291.636)"/><path d="M3-4.27296e-06 3.00008 58.7101-2.99992 58.7101-3 4.27296e-06ZM9.00008 55.7101 0.000104987 73.7101-8.99992 55.7101Z" fill="#70AD47" transform="matrix(1.00034 0 0 -1 773 291.636)"/><path d="M339.001 81.9722 339.001 171.622 332.999 171.622 332.999 81.9722ZM345.003 168.622 336 186.622 326.997 168.622Z" fill="#FF0000"/><path d="M65 307.896 65.0001 366.6" stroke="#595959" stroke-width="2.00068" stroke-miterlimit="8" fill="none" fill-rule="evenodd"/><path d="M773 304.897 773 361.593" stroke="#595959" stroke-width="2.00068" stroke-miterlimit="8" fill="none" fill-rule="evenodd"/><path d="M1.5724-0.988863 706.909 4.0181 706.894 6.01805 1.5582 1.01109ZM8.86681 7.49802-0.00204991-1.45804e-05 8.97237-7.37139C9.39914-7.72193 10.0293-7.66013 10.3798-7.23335 10.7304-6.80658 10.6686-6.17644 10.2418-5.82589L2.19468 0.78382 2.20558-0.752584 10.1581 5.9707C10.5798 6.32727 10.6327 6.95822 10.2761 7.37998 9.91953 7.80174 9.28857 7.85458 8.86681 7.49802ZM699.585-2.46893 708.454 5.0291 699.48 12.4005C699.053 12.751 698.423 12.6892 698.072 12.2624 697.722 11.8357 697.784 11.2055 698.21 10.855L706.257 4.24526 706.246 5.78167 698.294-0.941618C697.872-1.29818 697.819-1.92914 698.176-2.3509 698.533-2.77265 699.164-2.8255 699.585-2.46893Z" transform="matrix(1.00034 0 0 -1 64 338.916)"/><path d="M65 35.9878 65.0001 94.6921" stroke="#595959" stroke-width="2.00068" stroke-miterlimit="8" fill="none" fill-rule="evenodd"/><path d="M336 35.9878 336 94.6921" stroke="#595959" stroke-width="2.00068" stroke-miterlimit="8" fill="none" fill-rule="evenodd"/><path d="M1.55978-0.999968 270.219-0.994468 270.219 1.00553 1.55974 1.00003ZM8.91966 7.43507-0.00205001 6.43793e-08 8.91997-7.43471C9.34425-7.78826 9.97481-7.73092 10.3284-7.30664 10.6819-6.88236 10.6246-6.25179 10.2003-5.89824L2.20017 0.768266 2.2002-0.768176 10.2001 5.89865C10.6243 6.25223 10.6816 6.88279 10.3281 7.30706 9.9745 7.73133 9.34393 7.78864 8.91966 7.43507ZM262.86-7.42951 271.781 0.00556382 262.859 7.44027C262.435 7.79383 261.804 7.73649 261.451 7.3122 261.097 6.88792 261.155 6.25736 261.579 5.9038L269.579-0.762702 269.579 0.773741 261.579-5.89309C261.155-6.24666 261.098-6.87723 261.451-7.3015 261.805-7.72577 262.435-7.78308 262.86-7.42951Z" transform="matrix(1.00034 0 0 -1 64 64.9835)"/><path d="M21.6138-37.3994C20.4032-37.3994 19.1341-37.3701 17.8065-37.3116L13.8234-19.5637 16.8693-19.5637C19.2318-19.5637 21.1403-19.8077 22.5949-20.2959 24.0495-20.784 25.2405-21.5405 26.1679-22.5656 27.0953-23.5906 27.8128-24.806 28.3205-26.2118 28.8281-27.6176 29.0819-29.16 29.0819-30.8391 29.0819-33.104 28.506-34.7636 27.354-35.8179 26.2021-36.8723 24.2886-37.3994 21.6138-37.3994ZM9.34254-39.9767 22.2581-39.9767C24.5815-39.9767 26.49-39.7961 27.9837-39.4349 29.4773-39.0737 30.7074-38.5172 31.6738-37.7655 32.6403-37.0138 33.3627-36.062 33.8411-34.91 34.3194-33.7581 34.5586-32.4206 34.5586-30.8977 34.5586-27.969 33.8655-25.4308 32.4792-23.2831 31.093-21.1354 29.2137-19.5539 26.8415-18.5386 24.4692-17.5234 21.6235-17.0157 18.3043-17.0157 16.3128-17.0157 14.6532-17.0548 13.3256-17.1329L11.4512-8.5225C11.2755-7.72199 11.1534-7.10696 11.0851-6.67742 11.0168-6.24788 10.9582-5.78417 10.9094-5.28629 10.8606-4.78841 10.8362-4.34423 10.8362-3.95374 10.8362-3.34847 10.9338-2.875 11.129-2.53332 11.3243-2.19164 11.6172-1.9427 12.0076-1.7865 12.3981-1.63031 13.0717-1.51316 14.0284-1.43506L13.7063 0 1.66936 0 1.99151-1.43506C2.73345-1.55221 3.2899-1.74257 3.66087-2.00616 4.03184-2.26974 4.34423-2.63582 4.59805-3.10442 4.85187-3.57301 5.08617-4.1441 5.30094-4.8177 5.51571-5.4913 5.83786-6.79457 6.26741-8.72751L11.2462-31.2785C11.6757-33.2309 11.8905-34.7734 11.8905-35.9058 11.8905-36.8625 11.666-37.5263 11.2169-37.8973 10.7678-38.2683 10.0357-38.483 9.02038-38.5416Z" fill="#FF0000" fill-rule="evenodd" transform="matrix(1.00034 0 0 1 348.984 135.414)"/><text fill="#000000" fill-opacity="0" font-family="Arial,Arial_MSFontService,sans-serif" font-size="39.9767" x="1.66936" y="-4.99708">𝑃</text><text font-family="Cambria Math,Cambria Math_MSFontService,sans-serif" font-weight="400" font-size="48" transform="matrix(1 0 0 0.999661 257.43 56)">𝑆<tspan font-size="48" x="129.267" y="275.093">𝐿</tspan><tspan font-size="48" x="531.301" y="178.06">𝐵</tspan><tspan font-size="48" x="-239.927" y="180.061">𝐴</tspan></text><rect x="880.5" y="187.436" width="28.9999" height="30.9895" stroke="#2F528F" stroke-width="1.33379" stroke-miterlimit="8" fill="#8FAADC"/><text font-family="Cambria Math,Cambria Math_MSFontService,sans-serif" font-weight="400" font-size="30" transform="matrix(1 0 0 0.999661 888.866 149)">𝑎<tspan font-size="30" x="61.0159" y="63.0214">𝑏</tspan></text><path d="M0 0 23.4178 0.000104987" stroke="#000000" stroke-width="2" stroke-miterlimit="8" fill="none" fill-rule="evenodd" transform="matrix(-1.00034 0 0 1 943.426 188.936)"/><path d="M0 0 0.000104987 29.5268" stroke="#000000" stroke-width="2" stroke-miterlimit="8" fill="none" fill-rule="evenodd" transform="matrix(1.00034 0 0 -1 932 218.463)"/><path d="M0 0 23.4178 0.000104987" stroke="#000000" stroke-width="2" stroke-miterlimit="8" fill="none" fill-rule="evenodd" transform="matrix(-1.00034 0 0 1 943.426 217.926)"/><path d="M0 0 0.000104987 23.4847" stroke="#000000" stroke-width="2" stroke-miterlimit="8" fill="none" fill-rule="evenodd" transform="matrix(1.00034 0 0 -1 908 183.43)"/><path d="M881 170.942 908.19 170.942" stroke="#000000" stroke-width="2.00068" stroke-miterlimit="8" fill="none" fill-rule="evenodd"/><path d="M0 0 0.000104987 23.4847" stroke="#000000" stroke-width="2" stroke-miterlimit="8" fill="none" fill-rule="evenodd" transform="matrix(1.00034 0 0 -1 881 182.431)"/></g></svg>