<svg width="869" height="869" xmlns="http://www.w3.org/2000/svg" xmlns:xlink="http://www.w3.org/1999/xlink" overflow="hidden"><defs><clipPath id="clip0"><rect x="0" y="0" width="869" height="869"/></clipPath></defs><g clip-path="url(#clip0)"><rect x="0" y="0" width="869" height="869" fill="#FFFFFF"/><path d="M163 133 163 792.088" stroke="#4472C4" stroke-width="3.99847" stroke-miterlimit="8" fill="none" fill-rule="evenodd"/><path d="M0 0 578.616 0.000104947" stroke="#4472C4" stroke-width="3.99847" stroke-miterlimit="8" fill="none" fill-rule="evenodd" transform="matrix(1 0 0 -1 164 133)"/><path d="M0 0 736.164 0.000104947" stroke="#70AD47" stroke-width="5.9977" stroke-miterlimit="8" stroke-dasharray="23.9908 17.9931 5.9977 17.9931" fill="none" fill-rule="evenodd" transform="matrix(-1 0 0 1 847.164 458)"/><text font-family="Cambria Math,Cambria Math_MSFontService,sans-serif" font-weight="400" font-size="37" transform="matrix(1 0 0 1 748.768 439)">𝐿𝑁<tspan font-size="37" x="48.0615" y="0">~</tspan><tspan font-size="37" x="74.718" y="0">𝑧</tspan></text><path d="M165.84 87.0006 739.776 87.0007 739.776 89.9995 165.84 89.9994ZM173.876 97.149 163.497 88.5 173.876 79.851C174.512 79.3209 175.457 79.4068 175.988 80.043 176.518 80.6792 176.432 81.6246 175.796 82.1548L166.799 89.6519 166.799 87.3481 175.796 94.8453C176.432 95.3754 176.518 96.3209 175.988 96.957 175.457 97.5932 174.512 97.6792 173.876 97.149ZM731.74 79.8511 742.119 88.5001 731.74 97.1491C731.104 97.6793 730.159 97.5933 729.628 96.9572 729.098 96.321 729.184 95.3755 729.82 94.8454L738.817 87.3482 738.817 89.652 729.82 82.1549C729.184 81.6247 729.098 80.6793 729.628 80.0431 730.159 79.4069 731.104 79.321 731.74 79.8511Z"/><path d="M1.49943 2.33475 1.49953 651.715-1.49932 651.715-1.49942 2.33475ZM-8.64901 10.3757 1.18802e-08-0.00307358 8.64902 10.3757C9.17916 11.0119 9.09321 11.9574 8.45704 12.4875 7.82086 13.0177 6.87538 12.9317 6.34524 12.2956L-1.15189 3.29901 1.15189 3.29901-6.34523 12.2956C-6.87538 12.9317-7.82086 13.0177-8.45703 12.4875-9.0932 11.9574-9.17916 11.0119-8.64901 10.3757ZM8.64912 643.674 0.000104753 654.052-8.64891 643.674C-9.17905 643.037-9.0931 642.092-8.45693 641.562-7.82076 641.032-6.87527 641.118-6.34513 641.754L1.15199 650.75-1.15179 650.75 6.34534 641.754C6.87548 641.118 7.82096 641.032 8.45714 641.562 9.09331 642.092 9.17926 643.037 8.64912 643.674Z" transform="matrix(1 0 0 -1 85.5 791.549)"/><text font-family="Cambria Math,Cambria Math_MSFontService,sans-serif" font-weight="400" font-size="53" transform="matrix(1 0 0 1 34.9996 465)">𝑏<tspan font-size="53" x="403.11" y="-406">𝑎</tspan></text><path d="M742 132 742 791.088" stroke="#4472C4" stroke-width="3.99847" stroke-miterlimit="8" fill="none" fill-rule="evenodd"/><path d="M0 0 578.616 0.000104947" stroke="#4472C4" stroke-width="3.99847" stroke-miterlimit="8" fill="none" fill-rule="evenodd" transform="matrix(1 0 0 -1 163 791)"/><path d="M163 48 163 129.2" stroke="#AFABAB" stroke-width="3.99847" stroke-miterlimit="8" fill="none" fill-rule="evenodd"/><path d="M741 44 741 125.2" stroke="#AFABAB" stroke-width="3.99847" stroke-miterlimit="8" fill="none" fill-rule="evenodd"/><path d="M41 137 147.521 137" stroke="#AFABAB" stroke-width="3.99847" stroke-miterlimit="8" fill="none" fill-rule="evenodd"/><path d="M41 796 147.521 796" stroke="#AFABAB" stroke-width="3.99847" stroke-miterlimit="8" fill="none" fill-rule="evenodd"/><path d="M133 274 769.942 274" stroke="#C55A11" stroke-width="5.9977" stroke-miterlimit="8" stroke-dasharray="47.9816 17.9931" fill="none" fill-rule="evenodd"/><path d="M374.999 283.996 374.999 449.354 371.001 449.354 371.001 283.996ZM367.002 285.995 373 274 378.998 285.995Z"/><text font-family="Cambria Math,Cambria Math_MSFontService,sans-serif" font-weight="400" font-size="53" transform="matrix(1 0 0 1 384.07 377)">𝑦</text></g></svg>