<svg width="983" height="1021" xmlns="http://www.w3.org/2000/svg" xmlns:xlink="http://www.w3.org/1999/xlink" overflow="hidden"><defs><clipPath id="clip0"><rect x="0" y="0" width="983" height="1021"/></clipPath></defs><g clip-path="url(#clip0)"><rect x="0" y="0" width="983" height="1021.15" fill="#FFFFFF"/><rect x="64.5" y="187.528" width="709" height="31.0047" stroke="#8FAADC" stroke-width="1.33379" stroke-miterlimit="8" fill="#4472C4"/><path d="M3.00102-4.27441e-06 3.0011 58.73-3.00093 58.7301-3.00102 4.27441e-06ZM9.00313 55.729 0.000105022 73.7351-9.00297 55.729Z" fill="#70AD47" transform="matrix(1 0 0 -1.00015 65 291.779)"/><path d="M3.00102-4.27441e-06 3.0011 58.73-3.00093 58.7301-3.00102 4.27441e-06ZM9.00313 55.729 0.000105022 73.7351-9.00297 55.729Z" fill="#70AD47" transform="matrix(1 0 0 -1.00015 773 291.779)"/><path d="M339.001 82.0123 339.001 171.706 332.999 171.706 332.999 82.0123ZM345.003 168.705 336 186.714 326.997 168.705Z" fill="#FF0000"/><path d="M65 308.046 65.0001 366.779" stroke="#595959" stroke-width="2.00068" stroke-miterlimit="8" fill="none" fill-rule="evenodd"/><path d="M773 305.046 773 361.77" stroke="#595959" stroke-width="2.00068" stroke-miterlimit="8" fill="none" fill-rule="evenodd"/><path d="M1.57293-0.989199 707.148 4.01946 707.134 6.02009 1.55873 1.01143ZM8.86982 7.50056-0.00205061-1.45853e-05 8.97541-7.37389C9.40233-7.72455 10.0327-7.66273 10.3833-7.23581 10.734-6.80889 10.6722-6.17853 10.2453-5.82787L2.19542 0.784086 2.20633-0.75284 10.1615 5.97273C10.5834 6.32942 10.6363 6.96059 10.2796 7.38248 9.92289 7.80438 9.29172 7.85725 8.86982 7.50056ZM699.823-2.46977 708.694 5.0308 699.717 12.4047C699.29 12.7553 698.66 12.6935 698.309 12.2666 697.958 11.8397 698.02 11.2093 698.447 10.8587L706.497 4.2467 706.486 5.78363 698.531-0.941937C698.109-1.29862 698.056-1.92979 698.413-2.35169 698.769-2.77359 699.401-2.82646 699.823-2.46977Z" transform="matrix(1 0 0 -1.00015 64 339.082)"/><path d="M65 36.0055 65.0001 94.7385" stroke="#595959" stroke-width="2.00068" stroke-miterlimit="8" fill="none" fill-rule="evenodd"/><path d="M336 36.0055 336 94.7385" stroke="#595959" stroke-width="2.00068" stroke-miterlimit="8" fill="none" fill-rule="evenodd"/><path d="M1.56031-1.00031 270.311-0.994805 270.311 1.00587 1.56027 1.00037ZM8.92269 7.43759-0.00205071 6.44011e-08 8.92299-7.43723C9.34742-7.7909 9.9782-7.73355 10.3319-7.30912 10.6855-6.88469 10.6282-6.25391 10.2038-5.90024L2.20092 0.768527 2.20095-0.768437 10.2035 5.90066C10.6279 6.25435 10.6853 6.88513 10.3316 7.30954 9.97788 7.73395 9.3471 7.79129 8.92269 7.43759ZM262.949-7.43203 271.873 0.0055657 262.948 7.44279C262.524 7.79647 261.893 7.73911 261.54 7.31468 261.186 6.89026 261.243 6.25948 261.668 5.9058L269.671-0.762961 269.67 0.774003 261.668-5.89509C261.243-6.24878 261.186-6.87956 261.54-7.30398 261.893-7.72839 262.524-7.78572 262.949-7.43203Z" transform="matrix(1 0 0 -1.00015 64 65.0154)"/><path d="M21.6211-37.4121C20.4102-37.4121 19.1406-37.3828 17.8125-37.3242L13.8281-19.5703 16.875-19.5703C19.2383-19.5703 21.1475-19.8145 22.6025-20.3027 24.0576-20.791 25.249-21.5479 26.1768-22.5732 27.1045-23.5986 27.8223-24.8145 28.3301-26.2207 28.8379-27.627 29.0918-29.1699 29.0918-30.8496 29.0918-33.1152 28.5156-34.7754 27.3633-35.8301 26.2109-36.8848 24.2969-37.4121 21.6211-37.4121ZM9.3457-39.9902 22.2656-39.9902C24.5898-39.9902 26.499-39.8096 27.9932-39.4482 29.4873-39.0869 30.7178-38.5303 31.6846-37.7783 32.6514-37.0264 33.374-36.0742 33.8525-34.9219 34.3311-33.7695 34.5703-32.4316 34.5703-30.9082 34.5703-27.9785 33.877-25.4395 32.4902-23.291 31.1035-21.1426 29.2236-19.5605 26.8506-18.5449 24.4775-17.5293 21.6309-17.0215 18.3105-17.0215 16.3184-17.0215 14.6582-17.0605 13.3301-17.1387L11.4551-8.52539C11.2793-7.72461 11.1572-7.10938 11.0889-6.67969 11.0205-6.25 10.9619-5.78613 10.9131-5.28809 10.8643-4.79004 10.8398-4.3457 10.8398-3.95508 10.8398-3.34961 10.9375-2.87598 11.1328-2.53418 11.3281-2.19238 11.6211-1.94336 12.0117-1.78711 12.4023-1.63086 13.0762-1.51367 14.0332-1.43555L13.7109 0 1.66992 0 1.99219-1.43555C2.73438-1.55273 3.29102-1.74316 3.66211-2.00684 4.0332-2.27051 4.3457-2.63672 4.59961-3.10547 4.85352-3.57422 5.08789-4.14551 5.30274-4.81934 5.51758-5.49316 5.83984-6.79688 6.26953-8.73047L11.25-31.2891C11.6797-33.2422 11.8945-34.7852 11.8945-35.918 11.8945-36.875 11.6699-37.5391 11.2207-37.9102 10.7715-38.2812 10.0391-38.4961 9.02344-38.5547Z" fill="#FF0000" fill-rule="evenodd" transform="matrix(1 0 0 1.00015 348.984 135.547)"/><text fill="#000000" fill-opacity="0" font-family="Arial,Arial_MSFontService,sans-serif" font-size="39.9902" x="1.66992" y="-4.99878">π‘ƒ</text><text font-family="Cambria Math,Cambria Math_MSFontService,sans-serif" font-weight="400" font-size="48" transform="matrix(1 0 0 1.00015 257.43 57)">π‘†<tspan font-size="48" x="129.267" y="273.959">πΏ</tspan><tspan font-size="48" x="531.301" y="177.973">πµ</tspan><tspan font-size="48" x="-239.927" y="178.973">π΄</tspan></text><rect x="861.5" y="187.528" width="28.9999" height="31.0047" stroke="#2F528F" stroke-width="1.33379" stroke-miterlimit="8" fill="#8FAADC"/><text font-family="Cambria Math,Cambria Math_MSFontService,sans-serif" font-weight="400" font-size="30" transform="matrix(1 0 0 1.00015 869.659 149)">π‘<tspan font-size="30" x="61.0159" y="62.9905">π‘</tspan></text><path d="M0 0 23.4258 0.000105022" stroke="#000000" stroke-width="2.00068" stroke-miterlimit="8" fill="none" fill-rule="evenodd" transform="matrix(-1 0 0 1.00015 924.426 189.029)"/><path d="M0 0 0.000105022 29.5368" stroke="#000000" stroke-width="2.00068" stroke-miterlimit="8" fill="none" fill-rule="evenodd" transform="matrix(1 0 0 -1.00015 913 218.57)"/><path d="M0 0 23.4258 0.000105022" stroke="#000000" stroke-width="2.00068" stroke-miterlimit="8" fill="none" fill-rule="evenodd" transform="matrix(-1 0 0 1.00015 924.426 218.033)"/><path d="M0 0 0.000105022 23.4927" stroke="#000000" stroke-width="2.00068" stroke-miterlimit="8" fill="none" fill-rule="evenodd" transform="matrix(1 0 0 -1.00015 889 183.52)"/><path d="M862 171.026 889.19 171.026" stroke="#000000" stroke-width="2.00068" stroke-miterlimit="8" fill="none" fill-rule="evenodd"/><path d="M0 0 0.000105022 23.4927" stroke="#000000" stroke-width="2.00068" stroke-miterlimit="8" fill="none" fill-rule="evenodd" transform="matrix(1 0 0 -1.00015 862 182.52)"/><path d="M64.5 381.557 64.5001 992.857" stroke="#C55A11" stroke-width="3.00102" stroke-miterlimit="8" stroke-dasharray="12.0041 9.00305" fill="none" fill-rule="evenodd"/><path d="M336.5 230.535 336.5 308.369" stroke="#C55A11" stroke-width="3.00102" stroke-miterlimit="8" stroke-dasharray="12.0041 9.00305" fill="none" fill-rule="evenodd"/><path d="M773.5 367.555 773.5 1006.93" stroke="#C55A11" stroke-width="3.00102" stroke-miterlimit="8" stroke-dasharray="12.0041 9.00305" fill="none" fill-rule="evenodd"/><path d="M64 499.075 263.36 499.075" stroke="#4472C4" stroke-width="8.00271" stroke-miterlimit="8" fill="none" fill-rule="evenodd"/><path d="M3.00102-4.27441e-06 3.0011 58.73-3.00093 58.7301-3.00102 4.27441e-06ZM9.00313 55.729 0.000105022 73.7351-9.00297 55.729Z" fill="#70AD47" transform="matrix(1 0 0 -1.00015 64 572.821)"/><path d="M263.5 466.57 263.5 548.239" stroke="#C55A11" stroke-width="3.00102" stroke-miterlimit="8" stroke-dasharray="12.0041 9.00305" fill="none" fill-rule="evenodd"/><path d="M335.5 351.553 335.5 429.387" stroke="#C55A11" stroke-width="3.00102" stroke-miterlimit="8" stroke-dasharray="12.0041 9.00305" fill="none" fill-rule="evenodd"/><path d="M3.00102-3.14708e-06 3.00111 85.1432-3.00093 85.1432-3.00102 3.14708e-06ZM9.00314 82.1422 0.000105022 100.148-9.00297 82.1422Z" fill="#C55A11" transform="matrix(-1 0 0 1.00015 274 453.068)"/><text font-family="Cambria Math,Cambria Math_MSFontService,sans-serif" font-weight="400" font-size="48" transform="matrix(1 0 0 1.00015 20.9046 569)">π΄<tspan fill="#C55A11" font-size="48" x="268.646" y="-32.995">π‘‰</tspan></text><path d="M323.813 475.628 334.35 471.568 334.561 474.364C353.207 476.31 366.451 486.691 366.392 499.314 364.602 487.883 351.865 478.968 334.774 477.184L334.985 479.98Z" fill="#C55A11" fill-rule="evenodd"/><path d="M366.555 500.719C367.67 515.492 350.389 528.84 327.957 530.533L327.744 527.713C350.176 526.02 367.457 512.672 366.342 497.899Z" fill="#9E480E" fill-rule="evenodd"/><path d="M366.392 499.314C364.602 487.883 351.865 478.968 334.774 477.184L334.985 479.98 323.813 475.628 334.35 471.568 334.561 474.364C352.426 476.229 365.433 485.862 366.342 497.899L366.555 500.719C367.67 515.492 350.389 528.84 327.957 530.533L327.744 527.713C350.176 526.02 367.457 512.672 366.342 497.899" stroke="#C55A11" stroke-width="1.33399" stroke-miterlimit="8" fill="none" fill-rule="evenodd"/><text fill="#C55A11" font-family="Cambria Math,Cambria Math_MSFontService,sans-serif" font-weight="400" font-size="48" transform="matrix(1 0 0 1.00015 364.852 547)">π‘€</text><path d="M274 560.084 274 618.817" stroke="#595959" stroke-width="2.00068" stroke-miterlimit="8" fill="none" fill-rule="evenodd"/><path d="M65.0004 605.091 273.154 605.182 273.153 607.183 64.9995 607.092ZM265.794 598.741 274.715 606.184 265.787 613.618C265.362 613.972 264.732 613.914 264.378 613.49 264.025 613.065 264.082 612.434 264.507 612.081L272.513 605.414 272.512 606.951 264.512 600.278C264.088 599.924 264.031 599.293 264.385 598.869 264.738 598.444 265.369 598.387 265.794 598.741Z"/><text font-family="Cambria Math,Cambria Math_MSFontService,sans-serif" font-weight="400" font-size="48" transform="matrix(1 0 0 1.00015 196.729 594)">π‘¥</text><path d="M64 783.118 541.854 785.111" stroke="#4472C4" stroke-width="8.00271" stroke-miterlimit="8" fill="none" fill-rule="evenodd"/><path d="M3.00102-4.27441e-06 3.0011 58.73-3.00093 58.7301-3.00102 4.27441e-06ZM9.00313 55.729 0.000105022 73.7351-9.00297 55.729Z" fill="#70AD47" transform="matrix(1 0 0 -1.00015 64 856.864)"/><path d="M542.5 749.613 542.5 831.282" stroke="#C55A11" stroke-width="3.00102" stroke-miterlimit="8" stroke-dasharray="12.0041 9.00305" fill="none" fill-rule="evenodd"/><path d="M3.00102-3.14708e-06 3.00111 85.1432-3.00093 85.1432-3.00102 3.14708e-06ZM9.00314 82.1422 0.000105022 100.148-9.00297 82.1422Z" fill="#C55A11" transform="matrix(-1 0 0 1.00015 553 736.111)"/><text font-family="Cambria Math,Cambria Math_MSFontService,sans-serif" font-weight="400" font-size="48" transform="matrix(1 0 0 1.00015 20.9046 853)">π΄<tspan fill="#C55A11" font-size="48" x="547.141" y="-33.9949">π‘‰</tspan></text><path d="M602.308 759.275 612.845 755.215 613.056 758.011C631.701 759.957 644.946 770.338 644.887 782.961 643.097 771.53 630.359 762.615 613.269 760.831L613.48 763.627Z" fill="#C55A11" fill-rule="evenodd"/><path d="M645.05 784.366C646.165 799.139 628.884 812.487 606.452 814.18L606.239 811.36C628.671 809.667 645.952 796.319 644.837 781.546Z" fill="#9E480E" fill-rule="evenodd"/><path d="M644.887 782.961C643.097 771.53 630.359 762.615 613.269 760.831L613.48 763.627 602.308 759.275 612.845 755.215 613.056 758.011C630.921 759.876 643.928 769.509 644.837 781.546L645.05 784.366C646.165 799.139 628.884 812.487 606.452 814.18L606.239 811.36C628.671 809.667 645.952 796.319 644.837 781.546" stroke="#C55A11" stroke-width="1.33399" stroke-miterlimit="8" fill="none" fill-rule="evenodd"/><text fill="#C55A11" font-family="Cambria Math,Cambria Math_MSFontService,sans-serif" font-weight="400" font-size="48" transform="matrix(1 0 0 1.00015 643.347 830)">π‘€</text><path d="M553 843.127 553 901.86" stroke="#595959" stroke-width="2.00068" stroke-miterlimit="8" fill="none" fill-rule="evenodd"/><path d="M0.00083279-1.00034 486.65-0.595199 486.649 1.40548-0.00083279 1.00034ZM479.291-7.0384 488.21 0.40644 479.279 7.83642C478.854 8.18975 478.224 8.13188 477.87 7.70716 477.517 7.28245 477.575 6.65172 478 6.29839L486.008-0.363877 486.006 1.17309 478.009-5.5025C477.585-5.85654 477.528-6.48737 477.882-6.91149 478.237-7.33562 478.867-7.39244 479.291-7.0384Z" transform="matrix(1 0 0 -1.00015 65 890.541)"/><text font-family="Cambria Math,Cambria Math_MSFontService,sans-serif" font-weight="400" font-size="48" transform="matrix(1 0 0 1.00015 486.24 873)">π‘¥</text><path d="M340.5 758.614 340.5 1006.75" stroke="#C55A11" stroke-width="3.00102" stroke-miterlimit="8" stroke-dasharray="12.0041 9.00305" fill="none" fill-rule="evenodd"/><path d="M343.001 681.103 343.001 770.797 336.999 770.797 336.999 681.103ZM349.003 767.795 340 785.804 330.997 767.795Z" fill="#FF0000"/><path d="M21.6211-37.4121C20.4102-37.4121 19.1406-37.3828 17.8125-37.3242L13.8281-19.5703 16.875-19.5703C19.2383-19.5703 21.1475-19.8145 22.6025-20.3027 24.0576-20.791 25.249-21.5479 26.1768-22.5732 27.1045-23.5986 27.8223-24.8145 28.3301-26.2207 28.8379-27.627 29.0918-29.1699 29.0918-30.8496 29.0918-33.1152 28.5156-34.7754 27.3633-35.8301 26.2109-36.8848 24.2969-37.4121 21.6211-37.4121ZM9.3457-39.9902 22.2656-39.9902C24.5898-39.9902 26.499-39.8096 27.9932-39.4482 29.4873-39.0869 30.7178-38.5303 31.6846-37.7783 32.6514-37.0264 33.374-36.0742 33.8525-34.9219 34.3311-33.7695 34.5703-32.4316 34.5703-30.9082 34.5703-27.9785 33.877-25.4395 32.4902-23.291 31.1035-21.1426 29.2236-19.5605 26.8506-18.5449 24.4775-17.5293 21.6309-17.0215 18.3105-17.0215 16.3184-17.0215 14.6582-17.0605 13.3301-17.1387L11.4551-8.52539C11.2793-7.72461 11.1572-7.10938 11.0889-6.67969 11.0205-6.25 10.9619-5.78613 10.9131-5.28809 10.8643-4.79004 10.8398-4.3457 10.8398-3.95508 10.8398-3.34961 10.9375-2.87598 11.1328-2.53418 11.3281-2.19238 11.6211-1.94336 12.0117-1.78711 12.4023-1.63086 13.0762-1.51367 14.0332-1.43555L13.7109 0 1.66992 0 1.99219-1.43555C2.73438-1.55273 3.29102-1.74316 3.66211-2.00684 4.0332-2.27051 4.3457-2.63672 4.59961-3.10547 4.85352-3.57422 5.08789-4.14551 5.30274-4.81934 5.51758-5.49316 5.83984-6.79688 6.26953-8.73047L11.25-31.2891C11.6797-33.2422 11.8945-34.7852 11.8945-35.918 11.8945-36.875 11.6699-37.5391 11.2207-37.9102 10.7715-38.2812 10.0391-38.4961 9.02344-38.5547Z" fill="#FF0000" fill-rule="evenodd" transform="matrix(1 0 0 1.00015 352.96 734.874)"/><text fill="#000000" fill-opacity="0" font-family="Arial,Arial_MSFontService,sans-serif" font-size="39.9902" x="1.66992" y="-4.99878">π‘ƒ</text><text fill="#C55A11" font-family="Cambria Math,Cambria Math_MSFontService,sans-serif" font-weight="400" font-size="40" transform="matrix(1 0 0 1.00015 225.295 428)">(<tspan font-size="40" x="16.6723" y="0">πΌ</tspan><tspan font-size="40" x="33.1112" y="0">)</tspan><tspan font-size="40" x="273.684" y="274.959">(</tspan><tspan font-size="40" x="290.357" y="274.959">πΌπΌ</tspan><tspan font-size="40" x="321.967" y="274.959">)</tspan></text></g></svg>